<svg width="24" height="24" viewBox="0 0 24 24" fill="none" xmlns="http://www.w3.org/2000/svg">
<path fill-rule="evenodd" clip-rule="evenodd" d="M4.21499 2.76676H0V2H4.73937L6.23177 6.7185H24L20.9744 16.9222H8.39472C7.1595 16.9222 6.65981 17.6723 6.65981 18.3083C6.65981 18.9443 7.1595 19.6944 8.39472 19.6944H20.707V20.4611H18.9121C19.2115 20.8356 19.3918 21.3192 19.3918 21.8472C19.3918 23.0361 18.4772 24 17.3491 24C16.2209 24 15.3064 23.0361 15.3064 21.8472C15.3064 21.3192 15.4867 20.8356 15.786 20.4611H12.1964C12.4957 20.8356 12.676 21.3192 12.676 21.8472C12.676 23.0361 11.7615 24 10.6333 24C9.50515 24 8.59059 23.0361 8.59059 21.8472C8.59059 21.3192 8.77093 20.8356 9.07024 20.4611H8.39472C6.83169 20.4611 5.93227 19.4418 5.93227 18.3083C5.93227 17.1749 6.83169 16.1555 8.39472 16.1555H8.44966L4.21499 2.76676ZM9.21655 16.1555H20.4395L23.0104 7.48525H6.47428L9.21655 16.1555ZM10.6333 20.4611C9.90696 20.4611 9.31813 21.0817 9.31813 21.8472C9.31813 22.6127 9.90696 23.2332 10.6333 23.2332C11.3597 23.2332 11.9485 22.6127 11.9485 21.8472C11.9485 21.0817 11.3597 20.4611 10.6333 20.4611ZM17.3491 20.4611C16.6227 20.4611 16.0339 21.0817 16.0339 21.8472C16.0339 22.6127 16.6227 23.2332 17.3491 23.2332C18.0754 23.2332 18.6642 22.6127 18.6642 21.8472C18.6642 21.0817 18.0754 20.4611 17.3491 20.4611Z" fill="#222C31"/>
</svg>
